<svg xmlns="http://www.w3.org/2000/svg" xmlns:xlink="http://www.w3.org/1999/xlink" viewBox="0 0 1200 340" width="1200" height="340" role="img" aria-label="AxonOS — real-time neural operating system for brain-computer interfaces">
<defs>
  <linearGradient id="bg" x1="0" y1="0" x2="0" y2="1">
    <stop offset="0" stop-color="#06101f"/><stop offset="0.55" stop-color="#040a14"/><stop offset="1" stop-color="#02060c"/>
  </linearGradient>
  <radialGradient id="halo" cx="0.5" cy="0.46" r="0.6">
    <stop offset="0" stop-color="#0f3b34" stop-opacity="0.55"/><stop offset="1" stop-color="#0f3b34" stop-opacity="0"/>
  </radialGradient>
  <linearGradient id="title" x1="0" y1="0" x2="0" y2="1">
    <stop offset="0" stop-color="#ffffff"/><stop offset="1" stop-color="#9cc8ff"/>
  </linearGradient>
  <linearGradient id="edge" x1="0" y1="0" x2="1" y2="0">
    <stop offset="0" stop-color="#36d6a0" stop-opacity="0.0"/>
    <stop offset="0.5" stop-color="#36d6a0" stop-opacity="0.7"/>
    <stop offset="1" stop-color="#7af0ff" stop-opacity="0.0"/>
  </linearGradient>
  <filter id="glow" x="-50%" y="-50%" width="200%" height="200%">
    <feGaussianBlur stdDeviation="2.2" result="b"/><feMerge><feMergeNode in="b"/><feMergeNode in="SourceGraphic"/></feMerge>
  </filter>
  <filter id="softglow" x="-80%" y="-80%" width="260%" height="260%">
    <feGaussianBlur stdDeviation="4" result="b"/><feMerge><feMergeNode in="b"/><feMergeNode in="SourceGraphic"/></feMerge>
  </filter>
</defs>
<rect width="1200" height="340" fill="url(#bg)"/>
<rect width="1200" height="340" fill="url(#halo)"/>
<g fill="none" stroke-linecap="round">
<path d="M417.3,163.1 Q400.9,150.0 380.0,150.4" stroke="#1c6b59" stroke-opacity="0.45" stroke-width="1.1"/>
<path d="M417.3,163.1 Q400.9,150.0 380.0,150.4" stroke="url(#edge)" stroke-width="1.7" stroke-dasharray="14 120" stroke-dashoffset="134"><animate attributeName="stroke-dashoffset" from="134" to="0" dur="2.60s" begin="0.00s" repeatCount="indefinite"/></path>
<path d="M417.3,163.1 Q443.3,153.1 457.1,128.8" stroke="#1c6b59" stroke-opacity="0.45" stroke-width="1.1"/>
<path d="M417.3,163.1 Q443.3,153.1 457.1,128.8" stroke="url(#edge)" stroke-width="1.7" stroke-dasharray="14 120" stroke-dashoffset="134"><animate attributeName="stroke-dashoffset" from="134" to="0" dur="3.05s" begin="-0.40s" repeatCount="indefinite"/></path>
<path d="M352.1,190.6 Q350.3,207.5 359.7,221.7" stroke="#1c6b59" stroke-opacity="0.45" stroke-width="1.1"/>
<path d="M352.1,190.6 Q350.3,207.5 359.7,221.7" stroke="url(#edge)" stroke-width="1.7" stroke-dasharray="14 120" stroke-dashoffset="134"><animate attributeName="stroke-dashoffset" from="134" to="0" dur="3.50s" begin="-0.80s" repeatCount="indefinite"/></path>
<path d="M352.1,190.6 Q373.3,175.5 380.0,150.4" stroke="#1c6b59" stroke-opacity="0.45" stroke-width="1.1"/>
<path d="M352.1,190.6 Q373.3,175.5 380.0,150.4" stroke="url(#edge)" stroke-width="1.7" stroke-dasharray="14 120" stroke-dashoffset="134"><animate attributeName="stroke-dashoffset" from="134" to="0" dur="3.95s" begin="-1.20s" repeatCount="indefinite"/></path>
<path d="M296.0,162.5 Q271.3,172.6 258.7,196.1" stroke="#1c6b59" stroke-opacity="0.45" stroke-width="1.1"/>
<path d="M296.0,162.5 Q271.3,172.6 258.7,196.1" stroke="url(#edge)" stroke-width="1.7" stroke-dasharray="14 120" stroke-dashoffset="134"><animate attributeName="stroke-dashoffset" from="134" to="0" dur="4.40s" begin="-1.60s" repeatCount="indefinite"/></path>
<path d="M296.0,162.5 Q305.2,131.4 292.4,101.6" stroke="#1c6b59" stroke-opacity="0.45" stroke-width="1.1"/>
<path d="M296.0,162.5 Q305.2,131.4 292.4,101.6" stroke="url(#edge)" stroke-width="1.7" stroke-dasharray="14 120" stroke-dashoffset="134"><animate attributeName="stroke-dashoffset" from="134" to="0" dur="4.85s" begin="-2.00s" repeatCount="indefinite"/></path>
<path d="M357.2,124.1 Q363.9,141.4 380.0,150.4" stroke="#1c6b59" stroke-opacity="0.45" stroke-width="1.1"/>
<path d="M357.2,124.1 Q363.9,141.4 380.0,150.4" stroke="url(#edge)" stroke-width="1.7" stroke-dasharray="14 120" stroke-dashoffset="134"><animate attributeName="stroke-dashoffset" from="134" to="0" dur="5.30s" begin="-2.40s" repeatCount="indefinite"/></path>
<path d="M357.2,124.1 Q376.3,117.0 386.4,99.4" stroke="#1c6b59" stroke-opacity="0.45" stroke-width="1.1"/>
<path d="M357.2,124.1 Q376.3,117.0 386.4,99.4" stroke="url(#edge)" stroke-width="1.7" stroke-dasharray="14 120" stroke-dashoffset="134"><animate attributeName="stroke-dashoffset" from="134" to="0" dur="2.60s" begin="-2.80s" repeatCount="indefinite"/></path>
<path d="M455.7,200.1 Q476.9,212.4 501.1,208.3" stroke="#1c6b59" stroke-opacity="0.45" stroke-width="1.1"/>
<path d="M455.7,200.1 Q476.9,212.4 501.1,208.3" stroke="url(#edge)" stroke-width="1.7" stroke-dasharray="14 120" stroke-dashoffset="134"><animate attributeName="stroke-dashoffset" from="134" to="0" dur="3.05s" begin="-3.20s" repeatCount="indefinite"/></path>
<path d="M417.3,163.1 Q429.8,188.5 455.7,200.1" stroke="#1c6b59" stroke-opacity="0.45" stroke-width="1.1"/>
<path d="M417.3,163.1 Q429.8,188.5 455.7,200.1" stroke="url(#edge)" stroke-width="1.7" stroke-dasharray="14 120" stroke-dashoffset="134"><animate attributeName="stroke-dashoffset" from="134" to="0" dur="3.50s" begin="-3.60s" repeatCount="indefinite"/></path>
<path d="M359.7,221.7 Q382.3,245.1 414.5,248.7" stroke="#1c6b59" stroke-opacity="0.45" stroke-width="1.1"/>
<path d="M359.7,221.7 Q382.3,245.1 414.5,248.7" stroke="url(#edge)" stroke-width="1.7" stroke-dasharray="14 120" stroke-dashoffset="134"><animate attributeName="stroke-dashoffset" from="134" to="0" dur="3.95s" begin="-4.00s" repeatCount="indefinite"/></path>
<path d="M258.7,196.1 Q257.2,164.7 235.9,141.6" stroke="#1c6b59" stroke-opacity="0.45" stroke-width="1.1"/>
<path d="M258.7,196.1 Q257.2,164.7 235.9,141.6" stroke="url(#edge)" stroke-width="1.7" stroke-dasharray="14 120" stroke-dashoffset="134"><animate attributeName="stroke-dashoffset" from="134" to="0" dur="4.40s" begin="0.00s" repeatCount="indefinite"/></path>
<path d="M235.9,141.6 Q207.8,131.3 179.5,141.4" stroke="#1c6b59" stroke-opacity="0.45" stroke-width="1.1"/>
<path d="M235.9,141.6 Q207.8,131.3 179.5,141.4" stroke="url(#edge)" stroke-width="1.7" stroke-dasharray="14 120" stroke-dashoffset="134"><animate attributeName="stroke-dashoffset" from="134" to="0" dur="4.85s" begin="-0.40s" repeatCount="indefinite"/></path>
<path d="M292.4,101.6 Q269.3,81.4 238.5,80.5" stroke="#1c6b59" stroke-opacity="0.45" stroke-width="1.1"/>
<path d="M292.4,101.6 Q269.3,81.4 238.5,80.5" stroke="url(#edge)" stroke-width="1.7" stroke-dasharray="14 120" stroke-dashoffset="134"><animate attributeName="stroke-dashoffset" from="134" to="0" dur="5.30s" begin="-0.80s" repeatCount="indefinite"/></path>
<path d="M386.4,99.4 Q374.0,123.8 380.0,150.4" stroke="#1c6b59" stroke-opacity="0.45" stroke-width="1.1"/>
<path d="M386.4,99.4 Q374.0,123.8 380.0,150.4" stroke="url(#edge)" stroke-width="1.7" stroke-dasharray="14 120" stroke-dashoffset="134"><animate attributeName="stroke-dashoffset" from="134" to="0" dur="2.60s" begin="-1.20s" repeatCount="indefinite"/></path>
<path d="M457.1,128.8 Q472.4,109.1 471.6,84.1" stroke="#1c6b59" stroke-opacity="0.45" stroke-width="1.1"/>
<path d="M457.1,128.8 Q472.4,109.1 471.6,84.1" stroke="url(#edge)" stroke-width="1.7" stroke-dasharray="14 120" stroke-dashoffset="134"><animate attributeName="stroke-dashoffset" from="134" to="0" dur="3.05s" begin="-1.60s" repeatCount="indefinite"/></path>
<path d="M455.7,200.1 Q426.4,217.0 414.5,248.7" stroke="#1c6b59" stroke-opacity="0.45" stroke-width="1.1"/>
<path d="M455.7,200.1 Q426.4,217.0 414.5,248.7" stroke="url(#edge)" stroke-width="1.7" stroke-dasharray="14 120" stroke-dashoffset="134"><animate attributeName="stroke-dashoffset" from="134" to="0" dur="3.50s" begin="-2.00s" repeatCount="indefinite"/></path>
<path d="M258.7,196.1 Q265.0,231.5 292.4,254.8" stroke="#1c6b59" stroke-opacity="0.45" stroke-width="1.1"/>
<path d="M258.7,196.1 Q265.0,231.5 292.4,254.8" stroke="url(#edge)" stroke-width="1.7" stroke-dasharray="14 120" stroke-dashoffset="134"><animate attributeName="stroke-dashoffset" from="134" to="0" dur="3.95s" begin="-2.40s" repeatCount="indefinite"/></path>
<path d="M359.7,221.7 Q320.1,226.2 292.4,254.8" stroke="#1c6b59" stroke-opacity="0.45" stroke-width="1.1"/>
<path d="M359.7,221.7 Q320.1,226.2 292.4,254.8" stroke="url(#edge)" stroke-width="1.7" stroke-dasharray="14 120" stroke-dashoffset="134"><animate attributeName="stroke-dashoffset" from="134" to="0" dur="4.40s" begin="-2.80s" repeatCount="indefinite"/></path>
<path d="M258.7,196.1 Q221.2,192.8 190.1,214.2" stroke="#1c6b59" stroke-opacity="0.45" stroke-width="1.1"/>
<path d="M258.7,196.1 Q221.2,192.8 190.1,214.2" stroke="url(#edge)" stroke-width="1.7" stroke-dasharray="14 120" stroke-dashoffset="134"><animate attributeName="stroke-dashoffset" from="134" to="0" dur="4.85s" begin="-3.20s" repeatCount="indefinite"/></path>
<path d="M190.1,214.2 Q197.9,175.9 179.5,141.4" stroke="#1c6b59" stroke-opacity="0.45" stroke-width="1.1"/>
<path d="M190.1,214.2 Q197.9,175.9 179.5,141.4" stroke="url(#edge)" stroke-width="1.7" stroke-dasharray="14 120" stroke-dashoffset="134"><animate attributeName="stroke-dashoffset" from="134" to="0" dur="5.30s" begin="-3.60s" repeatCount="indefinite"/></path>
<path d="M235.9,141.6 Q248.2,111.5 238.5,80.5" stroke="#1c6b59" stroke-opacity="0.45" stroke-width="1.1"/>
<path d="M235.9,141.6 Q248.2,111.5 238.5,80.5" stroke="url(#edge)" stroke-width="1.7" stroke-dasharray="14 120" stroke-dashoffset="134"><animate attributeName="stroke-dashoffset" from="134" to="0" dur="2.60s" begin="-4.00s" repeatCount="indefinite"/></path>
<path d="M386.4,99.4 Q379.8,67.8 354.5,47.6" stroke="#1c6b59" stroke-opacity="0.45" stroke-width="1.1"/>
<path d="M386.4,99.4 Q379.8,67.8 354.5,47.6" stroke="url(#edge)" stroke-width="1.7" stroke-dasharray="14 120" stroke-dashoffset="134"><animate attributeName="stroke-dashoffset" from="134" to="0" dur="3.05s" begin="0.00s" repeatCount="indefinite"/></path>
<path d="M357.2,124.1 Q369.6,85.4 354.5,47.6" stroke="#1c6b59" stroke-opacity="0.45" stroke-width="1.1"/>
<path d="M357.2,124.1 Q369.6,85.4 354.5,47.6" stroke="url(#edge)" stroke-width="1.7" stroke-dasharray="14 120" stroke-dashoffset="134"><animate attributeName="stroke-dashoffset" from="134" to="0" dur="3.50s" begin="-0.40s" repeatCount="indefinite"/></path>
<path d="M471.6,84.1 Q487.7,119.4 522.6,136.4" stroke="#1c6b59" stroke-opacity="0.45" stroke-width="1.1"/>
<path d="M471.6,84.1 Q487.7,119.4 522.6,136.4" stroke="url(#edge)" stroke-width="1.7" stroke-dasharray="14 120" stroke-dashoffset="134"><animate attributeName="stroke-dashoffset" from="134" to="0" dur="3.95s" begin="-0.80s" repeatCount="indefinite"/></path>
<path d="M457.1,128.8 Q488.5,144.4 522.6,136.4" stroke="#1c6b59" stroke-opacity="0.45" stroke-width="1.1"/>
<path d="M457.1,128.8 Q488.5,144.4 522.6,136.4" stroke="url(#edge)" stroke-width="1.7" stroke-dasharray="14 120" stroke-dashoffset="134"><animate attributeName="stroke-dashoffset" from="134" to="0" dur="4.40s" begin="-1.20s" repeatCount="indefinite"/></path>
<path d="M522.6,136.4 Q498.9,168.5 501.1,208.3" stroke="#1c6b59" stroke-opacity="0.45" stroke-width="1.1"/>
<path d="M522.6,136.4 Q498.9,168.5 501.1,208.3" stroke="url(#edge)" stroke-width="1.7" stroke-dasharray="14 120" stroke-dashoffset="134"><animate attributeName="stroke-dashoffset" from="134" to="0" dur="4.85s" begin="-1.60s" repeatCount="indefinite"/></path>
<path d="M909.6,158.5 Q906.5,185.6 921.2,208.5" stroke="#1c6b59" stroke-opacity="0.45" stroke-width="1.1"/>
<path d="M909.6,158.5 Q906.5,185.6 921.2,208.5" stroke="url(#edge)" stroke-width="1.7" stroke-dasharray="14 120" stroke-dashoffset="134"><animate attributeName="stroke-dashoffset" from="134" to="0" dur="5.30s" begin="-2.00s" repeatCount="indefinite"/></path>
<path d="M909.6,158.5 Q898.9,132.9 874.2,119.9" stroke="#1c6b59" stroke-opacity="0.45" stroke-width="1.1"/>
<path d="M909.6,158.5 Q898.9,132.9 874.2,119.9" stroke="url(#edge)" stroke-width="1.7" stroke-dasharray="14 120" stroke-dashoffset="134"><animate attributeName="stroke-dashoffset" from="134" to="0" dur="2.60s" begin="-2.40s" repeatCount="indefinite"/></path>
<path d="M833.6,190.7 Q823.9,205.6 826.0,223.2" stroke="#1c6b59" stroke-opacity="0.45" stroke-width="1.1"/>
<path d="M833.6,190.7 Q823.9,205.6 826.0,223.2" stroke="url(#edge)" stroke-width="1.7" stroke-dasharray="14 120" stroke-dashoffset="134"><animate attributeName="stroke-dashoffset" from="134" to="0" dur="3.05s" begin="-2.80s" repeatCount="indefinite"/></path>
<path d="M833.6,190.7 Q834.0,168.1 820.0,150.4" stroke="#1c6b59" stroke-opacity="0.45" stroke-width="1.1"/>
<path d="M833.6,190.7 Q834.0,168.1 820.0,150.4" stroke="url(#edge)" stroke-width="1.7" stroke-dasharray="14 120" stroke-dashoffset="134"><animate attributeName="stroke-dashoffset" from="134" to="0" dur="3.50s" begin="-3.20s" repeatCount="indefinite"/></path>
<path d="M796.5,154.5 Q809.0,156.7 820.0,150.4" stroke="#1c6b59" stroke-opacity="0.45" stroke-width="1.1"/>
<path d="M796.5,154.5 Q809.0,156.7 820.0,150.4" stroke="url(#edge)" stroke-width="1.7" stroke-dasharray="14 120" stroke-dashoffset="134"><animate attributeName="stroke-dashoffset" from="134" to="0" dur="3.95s" begin="-3.60s" repeatCount="indefinite"/></path>
<path d="M833.6,190.7 Q821.5,165.9 796.5,154.5" stroke="#1c6b59" stroke-opacity="0.45" stroke-width="1.1"/>
<path d="M833.6,190.7 Q821.5,165.9 796.5,154.5" stroke="url(#edge)" stroke-width="1.7" stroke-dasharray="14 120" stroke-dashoffset="134"><animate attributeName="stroke-dashoffset" from="134" to="0" dur="4.40s" begin="-4.00s" repeatCount="indefinite"/></path>
<path d="M874.2,119.9 Q903.4,121.9 927.2,104.8" stroke="#1c6b59" stroke-opacity="0.45" stroke-width="1.1"/>
<path d="M874.2,119.9 Q903.4,121.9 927.2,104.8" stroke="url(#edge)" stroke-width="1.7" stroke-dasharray="14 120" stroke-dashoffset="134"><animate attributeName="stroke-dashoffset" from="134" to="0" dur="4.85s" begin="0.00s" repeatCount="indefinite"/></path>
<path d="M921.2,208.5 Q944.9,227.8 975.4,227.6" stroke="#1c6b59" stroke-opacity="0.45" stroke-width="1.1"/>
<path d="M921.2,208.5 Q944.9,227.8 975.4,227.6" stroke="url(#edge)" stroke-width="1.7" stroke-dasharray="14 120" stroke-dashoffset="134"><animate attributeName="stroke-dashoffset" from="134" to="0" dur="5.30s" begin="-0.40s" repeatCount="indefinite"/></path>
<path d="M826.0,223.2 Q843.0,252.9 875.0,265.0" stroke="#1c6b59" stroke-opacity="0.45" stroke-width="1.1"/>
<path d="M826.0,223.2 Q843.0,252.9 875.0,265.0" stroke="url(#edge)" stroke-width="1.7" stroke-dasharray="14 120" stroke-dashoffset="134"><animate attributeName="stroke-dashoffset" from="134" to="0" dur="2.60s" begin="-0.80s" repeatCount="indefinite"/></path>
<path d="M746.6,182.3 Q750.2,156.3 736.4,134.0" stroke="#1c6b59" stroke-opacity="0.45" stroke-width="1.1"/>
<path d="M746.6,182.3 Q750.2,156.3 736.4,134.0" stroke="url(#edge)" stroke-width="1.7" stroke-dasharray="14 120" stroke-dashoffset="134"><animate attributeName="stroke-dashoffset" from="134" to="0" dur="3.05s" begin="-1.20s" repeatCount="indefinite"/></path>
<path d="M746.6,182.3 Q736.5,208.6 745.5,235.4" stroke="#1c6b59" stroke-opacity="0.45" stroke-width="1.1"/>
<path d="M746.6,182.3 Q736.5,208.6 745.5,235.4" stroke="url(#edge)" stroke-width="1.7" stroke-dasharray="14 120" stroke-dashoffset="134"><animate attributeName="stroke-dashoffset" from="134" to="0" dur="3.50s" begin="-1.60s" repeatCount="indefinite"/></path>
<path d="M736.4,134.0 Q716.8,118.6 692.0,119.3" stroke="#1c6b59" stroke-opacity="0.45" stroke-width="1.1"/>
<path d="M736.4,134.0 Q716.8,118.6 692.0,119.3" stroke="url(#edge)" stroke-width="1.7" stroke-dasharray="14 120" stroke-dashoffset="134"><animate attributeName="stroke-dashoffset" from="134" to="0" dur="3.95s" begin="-2.00s" repeatCount="indefinite"/></path>
<path d="M815.5,87.8 Q796.7,71.3 771.6,70.6" stroke="#1c6b59" stroke-opacity="0.45" stroke-width="1.1"/>
<path d="M815.5,87.8 Q796.7,71.3 771.6,70.6" stroke="url(#edge)" stroke-width="1.7" stroke-dasharray="14 120" stroke-dashoffset="134"><animate attributeName="stroke-dashoffset" from="134" to="0" dur="4.40s" begin="-2.40s" repeatCount="indefinite"/></path>
<path d="M815.5,87.8 Q806.5,119.9 820.0,150.4" stroke="#1c6b59" stroke-opacity="0.45" stroke-width="1.1"/>
<path d="M815.5,87.8 Q806.5,119.9 820.0,150.4" stroke="url(#edge)" stroke-width="1.7" stroke-dasharray="14 120" stroke-dashoffset="134"><animate attributeName="stroke-dashoffset" from="134" to="0" dur="4.85s" begin="-2.80s" repeatCount="indefinite"/></path>
<path d="M909.6,158.5 Q928.1,134.8 927.2,104.8" stroke="#1c6b59" stroke-opacity="0.45" stroke-width="1.1"/>
<path d="M909.6,158.5 Q928.1,134.8 927.2,104.8" stroke="url(#edge)" stroke-width="1.7" stroke-dasharray="14 120" stroke-dashoffset="134"><animate attributeName="stroke-dashoffset" from="134" to="0" dur="5.30s" begin="-3.20s" repeatCount="indefinite"/></path>
<path d="M909.6,158.5 Q938.9,168.9 968.1,158.2" stroke="#1c6b59" stroke-opacity="0.45" stroke-width="1.1"/>
<path d="M909.6,158.5 Q938.9,168.9 968.1,158.2" stroke="url(#edge)" stroke-width="1.7" stroke-dasharray="14 120" stroke-dashoffset="134"><animate attributeName="stroke-dashoffset" from="134" to="0" dur="2.60s" begin="-3.60s" repeatCount="indefinite"/></path>
<path d="M968.1,158.2 Q1001.0,171.6 1034.8,161.0" stroke="#1c6b59" stroke-opacity="0.45" stroke-width="1.1"/>
<path d="M968.1,158.2 Q1001.0,171.6 1034.8,161.0" stroke="url(#edge)" stroke-width="1.7" stroke-dasharray="14 120" stroke-dashoffset="134"><animate attributeName="stroke-dashoffset" from="134" to="0" dur="3.05s" begin="-4.00s" repeatCount="indefinite"/></path>
<path d="M921.2,208.5 Q888.0,228.4 875.0,265.0" stroke="#1c6b59" stroke-opacity="0.45" stroke-width="1.1"/>
<path d="M921.2,208.5 Q888.0,228.4 875.0,265.0" stroke="url(#edge)" stroke-width="1.7" stroke-dasharray="14 120" stroke-dashoffset="134"><animate attributeName="stroke-dashoffset" from="134" to="0" dur="3.50s" begin="0.00s" repeatCount="indefinite"/></path>
<path d="M745.5,235.4 Q723.7,198.7 683.5,184.2" stroke="#1c6b59" stroke-opacity="0.45" stroke-width="1.1"/>
<path d="M745.5,235.4 Q723.7,198.7 683.5,184.2" stroke="url(#edge)" stroke-width="1.7" stroke-dasharray="14 120" stroke-dashoffset="134"><animate attributeName="stroke-dashoffset" from="134" to="0" dur="3.95s" begin="-0.40s" repeatCount="indefinite"/></path>
<path d="M746.6,182.3 Q714.7,171.9 683.5,184.2" stroke="#1c6b59" stroke-opacity="0.45" stroke-width="1.1"/>
<path d="M746.6,182.3 Q714.7,171.9 683.5,184.2" stroke="url(#edge)" stroke-width="1.7" stroke-dasharray="14 120" stroke-dashoffset="134"><animate attributeName="stroke-dashoffset" from="134" to="0" dur="4.40s" begin="-0.80s" repeatCount="indefinite"/></path>
<path d="M683.5,184.2 Q699.4,153.3 692.0,119.3" stroke="#1c6b59" stroke-opacity="0.45" stroke-width="1.1"/>
<path d="M683.5,184.2 Q699.4,153.3 692.0,119.3" stroke="url(#edge)" stroke-width="1.7" stroke-dasharray="14 120" stroke-dashoffset="134"><animate attributeName="stroke-dashoffset" from="134" to="0" dur="4.85s" begin="-1.20s" repeatCount="indefinite"/></path>
<path d="M736.4,134.0 Q765.4,108.6 771.6,70.6" stroke="#1c6b59" stroke-opacity="0.45" stroke-width="1.1"/>
<path d="M736.4,134.0 Q765.4,108.6 771.6,70.6" stroke="url(#edge)" stroke-width="1.7" stroke-dasharray="14 120" stroke-dashoffset="134"><animate attributeName="stroke-dashoffset" from="134" to="0" dur="5.30s" begin="-1.60s" repeatCount="indefinite"/></path>
<path d="M927.2,104.8 Q918.5,72.7 891.4,53.5" stroke="#1c6b59" stroke-opacity="0.45" stroke-width="1.1"/>
<path d="M927.2,104.8 Q918.5,72.7 891.4,53.5" stroke="url(#edge)" stroke-width="1.7" stroke-dasharray="14 120" stroke-dashoffset="134"><animate attributeName="stroke-dashoffset" from="134" to="0" dur="2.60s" begin="-2.00s" repeatCount="indefinite"/></path>
<path d="M874.2,119.9 Q894.8,89.8 891.4,53.5" stroke="#1c6b59" stroke-opacity="0.45" stroke-width="1.1"/>
<path d="M874.2,119.9 Q894.8,89.8 891.4,53.5" stroke="url(#edge)" stroke-width="1.7" stroke-dasharray="14 120" stroke-dashoffset="134"><animate attributeName="stroke-dashoffset" from="134" to="0" dur="3.05s" begin="-2.40s" repeatCount="indefinite"/></path>
<path d="M927.2,104.8 Q958.7,109.5 986.0,93.1" stroke="#1c6b59" stroke-opacity="0.45" stroke-width="1.1"/>
<path d="M927.2,104.8 Q958.7,109.5 986.0,93.1" stroke="url(#edge)" stroke-width="1.7" stroke-dasharray="14 120" stroke-dashoffset="134"><animate attributeName="stroke-dashoffset" from="134" to="0" dur="3.50s" begin="-2.80s" repeatCount="indefinite"/></path>
<path d="M968.1,158.2 Q988.8,128.9 986.0,93.1" stroke="#1c6b59" stroke-opacity="0.45" stroke-width="1.1"/>
<path d="M968.1,158.2 Q988.8,128.9 986.0,93.1" stroke="url(#edge)" stroke-width="1.7" stroke-dasharray="14 120" stroke-dashoffset="134"><animate attributeName="stroke-dashoffset" from="134" to="0" dur="3.95s" begin="-3.20s" repeatCount="indefinite"/></path>
<path d="M986.0,93.1 Q998.2,135.8 1034.8,161.0" stroke="#1c6b59" stroke-opacity="0.45" stroke-width="1.1"/>
<path d="M986.0,93.1 Q998.2,135.8 1034.8,161.0" stroke="url(#edge)" stroke-width="1.7" stroke-dasharray="14 120" stroke-dashoffset="134"><animate attributeName="stroke-dashoffset" from="134" to="0" dur="4.40s" begin="-3.60s" repeatCount="indefinite"/></path>
<path d="M968.1,158.2 Q959.3,194.2 975.4,227.6" stroke="#1c6b59" stroke-opacity="0.45" stroke-width="1.1"/>
<path d="M968.1,158.2 Q959.3,194.2 975.4,227.6" stroke="url(#edge)" stroke-width="1.7" stroke-dasharray="14 120" stroke-dashoffset="134"><animate attributeName="stroke-dashoffset" from="134" to="0" dur="4.85s" begin="-4.00s" repeatCount="indefinite"/></path>
<path d="M522.6,136.4 Q594.4,189.2 683.5,184.2" stroke="#1c6b59" stroke-opacity="0.45" stroke-width="1.1"/>
<path d="M522.6,136.4 Q594.4,189.2 683.5,184.2" stroke="url(#edge)" stroke-width="1.7" stroke-dasharray="14 120" stroke-dashoffset="134"><animate attributeName="stroke-dashoffset" from="134" to="0" dur="5.30s" begin="0.00s" repeatCount="indefinite"/></path>
<path d="M501.1,208.3 Q612.5,198.2 692.0,119.3" stroke="#1c6b59" stroke-opacity="0.45" stroke-width="1.1"/>
<path d="M501.1,208.3 Q612.5,198.2 692.0,119.3" stroke="url(#edge)" stroke-width="1.7" stroke-dasharray="14 120" stroke-dashoffset="134"><animate attributeName="stroke-dashoffset" from="134" to="0" dur="2.60s" begin="-0.40s" repeatCount="indefinite"/></path>
<path d="M471.6,84.1 Q595.0,156.7 736.4,134.0" stroke="#1c6b59" stroke-opacity="0.45" stroke-width="1.1"/>
<path d="M471.6,84.1 Q595.0,156.7 736.4,134.0" stroke="url(#edge)" stroke-width="1.7" stroke-dasharray="14 120" stroke-dashoffset="134"><animate attributeName="stroke-dashoffset" from="134" to="0" dur="3.05s" begin="-0.80s" repeatCount="indefinite"/></path>
<path d="M457.1,128.8 Q582.1,234.1 745.5,235.4" stroke="#1c6b59" stroke-opacity="0.45" stroke-width="1.1"/>
<path d="M457.1,128.8 Q582.1,234.1 745.5,235.4" stroke="url(#edge)" stroke-width="1.7" stroke-dasharray="14 120" stroke-dashoffset="134"><animate attributeName="stroke-dashoffset" from="134" to="0" dur="3.50s" begin="-1.20s" repeatCount="indefinite"/></path>
</g>
<g>
<path id="e0" d="M417.3,163.1 Q400.9,150.0 380.0,150.4" fill="none"/>
<circle r="2.4" fill="#aef9e6" filter="url(#glow)"><animateMotion dur="3.00s" begin="0.00s" repeatCount="indefinite" rotate="auto"><mpath xlink:href="#e0"/></animateMotion></circle>
<path id="e4" d="M296.0,162.5 Q271.3,172.6 258.7,196.1" fill="none"/>
<circle r="2.4" fill="#aef9e6" filter="url(#glow)"><animateMotion dur="5.00s" begin="1.20s" repeatCount="indefinite" rotate="auto"><mpath xlink:href="#e4"/></animateMotion></circle>
<path id="e8" d="M455.7,200.1 Q476.9,212.4 501.1,208.3" fill="none"/>
<circle r="2.4" fill="#aef9e6" filter="url(#glow)"><animateMotion dur="4.50s" begin="2.40s" repeatCount="indefinite" rotate="auto"><mpath xlink:href="#e8"/></animateMotion></circle>
<path id="e12" d="M235.9,141.6 Q207.8,131.3 179.5,141.4" fill="none"/>
<circle r="2.4" fill="#aef9e6" filter="url(#glow)"><animateMotion dur="4.00s" begin="0.90s" repeatCount="indefinite" rotate="auto"><mpath xlink:href="#e12"/></animateMotion></circle>
<path id="e16" d="M455.7,200.1 Q426.4,217.0 414.5,248.7" fill="none"/>
<circle r="2.4" fill="#aef9e6" filter="url(#glow)"><animateMotion dur="3.50s" begin="2.10s" repeatCount="indefinite" rotate="auto"><mpath xlink:href="#e16"/></animateMotion></circle>
<path id="e20" d="M190.1,214.2 Q197.9,175.9 179.5,141.4" fill="none"/>
<circle r="2.4" fill="#aef9e6" filter="url(#glow)"><animateMotion dur="3.00s" begin="0.60s" repeatCount="indefinite" rotate="auto"><mpath xlink:href="#e20"/></animateMotion></circle>
<path id="e24" d="M471.6,84.1 Q487.7,119.4 522.6,136.4" fill="none"/>
<circle r="2.4" fill="#aef9e6" filter="url(#glow)"><animateMotion dur="5.00s" begin="1.80s" repeatCount="indefinite" rotate="auto"><mpath xlink:href="#e24"/></animateMotion></circle>
<path id="e28" d="M909.6,158.5 Q898.9,132.9 874.2,119.9" fill="none"/>
<circle r="2.4" fill="#aef9e6" filter="url(#glow)"><animateMotion dur="4.50s" begin="0.30s" repeatCount="indefinite" rotate="auto"><mpath xlink:href="#e28"/></animateMotion></circle>
<path id="e32" d="M833.6,190.7 Q821.5,165.9 796.5,154.5" fill="none"/>
<circle r="2.4" fill="#aef9e6" filter="url(#glow)"><animateMotion dur="4.00s" begin="1.50s" repeatCount="indefinite" rotate="auto"><mpath xlink:href="#e32"/></animateMotion></circle>
<path id="e36" d="M746.6,182.3 Q750.2,156.3 736.4,134.0" fill="none"/>
<circle r="2.4" fill="#aef9e6" filter="url(#glow)"><animateMotion dur="3.50s" begin="0.00s" repeatCount="indefinite" rotate="auto"><mpath xlink:href="#e36"/></animateMotion></circle>
<path id="e40" d="M815.5,87.8 Q806.5,119.9 820.0,150.4" fill="none"/>
<circle r="2.4" fill="#aef9e6" filter="url(#glow)"><animateMotion dur="3.00s" begin="1.20s" repeatCount="indefinite" rotate="auto"><mpath xlink:href="#e40"/></animateMotion></circle>
<path id="e44" d="M921.2,208.5 Q888.0,228.4 875.0,265.0" fill="none"/>
<circle r="2.4" fill="#aef9e6" filter="url(#glow)"><animateMotion dur="5.00s" begin="2.40s" repeatCount="indefinite" rotate="auto"><mpath xlink:href="#e44"/></animateMotion></circle>
<path id="e48" d="M736.4,134.0 Q765.4,108.6 771.6,70.6" fill="none"/>
<circle r="2.4" fill="#aef9e6" filter="url(#glow)"><animateMotion dur="4.50s" begin="0.90s" repeatCount="indefinite" rotate="auto"><mpath xlink:href="#e48"/></animateMotion></circle>
<path id="e52" d="M968.1,158.2 Q988.8,128.9 986.0,93.1" fill="none"/>
<circle r="2.4" fill="#aef9e6" filter="url(#glow)"><animateMotion dur="4.00s" begin="2.10s" repeatCount="indefinite" rotate="auto"><mpath xlink:href="#e52"/></animateMotion></circle>
<path id="e56" d="M501.1,208.3 Q612.5,198.2 692.0,119.3" fill="none"/>
<circle r="2.4" fill="#aef9e6" filter="url(#glow)"><animateMotion dur="3.50s" begin="0.60s" repeatCount="indefinite" rotate="auto"><mpath xlink:href="#e56"/></animateMotion></circle>
</g>
<g filter="url(#glow)">
<circle cx="417.3" cy="163.1" r="2.6" fill="#f0c869"><animate attributeName="r" values="2.6;4.4;2.6" dur="2.20s" begin="0.00s" repeatCount="indefinite"/><animate attributeName="fill-opacity" values="0.55;1;0.55" dur="2.20s" begin="0.00s" repeatCount="indefinite"/></circle>
<circle cx="352.1" cy="190.6" r="3.3" fill="#36d6a0"><animate attributeName="r" values="3.3;5.1;3.3" dur="2.60s" begin="0.25s" repeatCount="indefinite"/><animate attributeName="fill-opacity" values="0.55;1;0.55" dur="2.60s" begin="0.25s" repeatCount="indefinite"/></circle>
<circle cx="296.0" cy="162.5" r="4.0" fill="#36d6a0"><animate attributeName="r" values="4.0;5.8;4.0" dur="3.00s" begin="0.50s" repeatCount="indefinite"/><animate attributeName="fill-opacity" values="0.55;1;0.55" dur="3.00s" begin="0.50s" repeatCount="indefinite"/></circle>
<circle cx="357.2" cy="124.1" r="2.6" fill="#36d6a0"><animate attributeName="r" values="2.6;4.4;2.6" dur="3.40s" begin="0.75s" repeatCount="indefinite"/><animate attributeName="fill-opacity" values="0.55;1;0.55" dur="3.40s" begin="0.75s" repeatCount="indefinite"/></circle>
<circle cx="455.7" cy="200.1" r="3.3" fill="#36d6a0"><animate attributeName="r" values="3.3;5.1;3.3" dur="3.80s" begin="1.00s" repeatCount="indefinite"/><animate attributeName="fill-opacity" values="0.55;1;0.55" dur="3.80s" begin="1.00s" repeatCount="indefinite"/></circle>
<circle cx="359.7" cy="221.7" r="4.0" fill="#36d6a0"><animate attributeName="r" values="4.0;5.8;4.0" dur="4.20s" begin="1.25s" repeatCount="indefinite"/><animate attributeName="fill-opacity" values="0.55;1;0.55" dur="4.20s" begin="1.25s" repeatCount="indefinite"/></circle>
<circle cx="258.7" cy="196.1" r="2.6" fill="#36d6a0"><animate attributeName="r" values="2.6;4.4;2.6" dur="2.20s" begin="1.50s" repeatCount="indefinite"/><animate attributeName="fill-opacity" values="0.55;1;0.55" dur="2.20s" begin="1.50s" repeatCount="indefinite"/></circle>
<circle cx="235.9" cy="141.6" r="3.3" fill="#7af0ff"><animate attributeName="r" values="3.3;5.1;3.3" dur="2.60s" begin="1.75s" repeatCount="indefinite"/><animate attributeName="fill-opacity" values="0.55;1;0.55" dur="2.60s" begin="1.75s" repeatCount="indefinite"/></circle>
<circle cx="292.4" cy="101.6" r="4.0" fill="#36d6a0"><animate attributeName="r" values="4.0;5.8;4.0" dur="3.00s" begin="2.00s" repeatCount="indefinite"/><animate attributeName="fill-opacity" values="0.55;1;0.55" dur="3.00s" begin="2.00s" repeatCount="indefinite"/></circle>
<circle cx="386.4" cy="99.4" r="2.6" fill="#36d6a0"><animate attributeName="r" values="2.6;4.4;2.6" dur="3.40s" begin="2.25s" repeatCount="indefinite"/><animate attributeName="fill-opacity" values="0.55;1;0.55" dur="3.40s" begin="2.25s" repeatCount="indefinite"/></circle>
<circle cx="457.1" cy="128.8" r="3.3" fill="#36d6a0"><animate attributeName="r" values="3.3;5.1;3.3" dur="3.80s" begin="2.50s" repeatCount="indefinite"/><animate attributeName="fill-opacity" values="0.55;1;0.55" dur="3.80s" begin="2.50s" repeatCount="indefinite"/></circle>
<circle cx="414.5" cy="248.7" r="4.0" fill="#f0c869"><animate attributeName="r" values="4.0;5.8;4.0" dur="4.20s" begin="2.75s" repeatCount="indefinite"/><animate attributeName="fill-opacity" values="0.55;1;0.55" dur="4.20s" begin="2.75s" repeatCount="indefinite"/></circle>
<circle cx="292.4" cy="254.8" r="2.6" fill="#36d6a0"><animate attributeName="r" values="2.6;4.4;2.6" dur="2.20s" begin="3.00s" repeatCount="indefinite"/><animate attributeName="fill-opacity" values="0.55;1;0.55" dur="2.20s" begin="3.00s" repeatCount="indefinite"/></circle>
<circle cx="190.1" cy="214.2" r="3.3" fill="#36d6a0"><animate attributeName="r" values="3.3;5.1;3.3" dur="2.60s" begin="0.00s" repeatCount="indefinite"/><animate attributeName="fill-opacity" values="0.55;1;0.55" dur="2.60s" begin="0.00s" repeatCount="indefinite"/></circle>
<circle cx="179.5" cy="141.4" r="4.0" fill="#7af0ff"><animate attributeName="r" values="4.0;5.8;4.0" dur="3.00s" begin="0.25s" repeatCount="indefinite"/><animate attributeName="fill-opacity" values="0.55;1;0.55" dur="3.00s" begin="0.25s" repeatCount="indefinite"/></circle>
<circle cx="238.5" cy="80.5" r="2.6" fill="#36d6a0"><animate attributeName="r" values="2.6;4.4;2.6" dur="3.40s" begin="0.50s" repeatCount="indefinite"/><animate attributeName="fill-opacity" values="0.55;1;0.55" dur="3.40s" begin="0.50s" repeatCount="indefinite"/></circle>
<circle cx="354.5" cy="47.6" r="3.3" fill="#36d6a0"><animate attributeName="r" values="3.3;5.1;3.3" dur="3.80s" begin="0.75s" repeatCount="indefinite"/><animate attributeName="fill-opacity" values="0.55;1;0.55" dur="3.80s" begin="0.75s" repeatCount="indefinite"/></circle>
<circle cx="471.6" cy="84.1" r="4.0" fill="#36d6a0"><animate attributeName="r" values="4.0;5.8;4.0" dur="4.20s" begin="1.00s" repeatCount="indefinite"/><animate attributeName="fill-opacity" values="0.55;1;0.55" dur="4.20s" begin="1.00s" repeatCount="indefinite"/></circle>
<circle cx="522.6" cy="136.4" r="2.6" fill="#36d6a0"><animate attributeName="r" values="2.6;4.4;2.6" dur="2.20s" begin="1.25s" repeatCount="indefinite"/><animate attributeName="fill-opacity" values="0.55;1;0.55" dur="2.20s" begin="1.25s" repeatCount="indefinite"/></circle>
<circle cx="501.1" cy="208.3" r="3.3" fill="#36d6a0"><animate attributeName="r" values="3.3;5.1;3.3" dur="2.60s" begin="1.50s" repeatCount="indefinite"/><animate attributeName="fill-opacity" values="0.55;1;0.55" dur="2.60s" begin="1.50s" repeatCount="indefinite"/></circle>
<circle cx="380.0" cy="150.4" r="4.0" fill="#36d6a0"><animate attributeName="r" values="4.0;5.8;4.0" dur="3.00s" begin="1.75s" repeatCount="indefinite"/><animate attributeName="fill-opacity" values="0.55;1;0.55" dur="3.00s" begin="1.75s" repeatCount="indefinite"/></circle>
<circle cx="909.6" cy="158.5" r="2.6" fill="#7af0ff"><animate attributeName="r" values="2.6;4.4;2.6" dur="3.40s" begin="2.00s" repeatCount="indefinite"/><animate attributeName="fill-opacity" values="0.55;1;0.55" dur="3.40s" begin="2.00s" repeatCount="indefinite"/></circle>
<circle cx="833.6" cy="190.7" r="3.3" fill="#f0c869"><animate attributeName="r" values="3.3;5.1;3.3" dur="3.80s" begin="2.25s" repeatCount="indefinite"/><animate attributeName="fill-opacity" values="0.55;1;0.55" dur="3.80s" begin="2.25s" repeatCount="indefinite"/></circle>
<circle cx="796.5" cy="154.5" r="4.0" fill="#36d6a0"><animate attributeName="r" values="4.0;5.8;4.0" dur="4.20s" begin="2.50s" repeatCount="indefinite"/><animate attributeName="fill-opacity" values="0.55;1;0.55" dur="4.20s" begin="2.50s" repeatCount="indefinite"/></circle>
<circle cx="874.2" cy="119.9" r="2.6" fill="#36d6a0"><animate attributeName="r" values="2.6;4.4;2.6" dur="2.20s" begin="2.75s" repeatCount="indefinite"/><animate attributeName="fill-opacity" values="0.55;1;0.55" dur="2.20s" begin="2.75s" repeatCount="indefinite"/></circle>
<circle cx="921.2" cy="208.5" r="3.3" fill="#36d6a0"><animate attributeName="r" values="3.3;5.1;3.3" dur="2.60s" begin="3.00s" repeatCount="indefinite"/><animate attributeName="fill-opacity" values="0.55;1;0.55" dur="2.60s" begin="3.00s" repeatCount="indefinite"/></circle>
<circle cx="826.0" cy="223.2" r="4.0" fill="#36d6a0"><animate attributeName="r" values="4.0;5.8;4.0" dur="3.00s" begin="0.00s" repeatCount="indefinite"/><animate attributeName="fill-opacity" values="0.55;1;0.55" dur="3.00s" begin="0.00s" repeatCount="indefinite"/></circle>
<circle cx="746.6" cy="182.3" r="2.6" fill="#36d6a0"><animate attributeName="r" values="2.6;4.4;2.6" dur="3.40s" begin="0.25s" repeatCount="indefinite"/><animate attributeName="fill-opacity" values="0.55;1;0.55" dur="3.40s" begin="0.25s" repeatCount="indefinite"/></circle>
<circle cx="736.4" cy="134.0" r="3.3" fill="#7af0ff"><animate attributeName="r" values="3.3;5.1;3.3" dur="3.80s" begin="0.50s" repeatCount="indefinite"/><animate attributeName="fill-opacity" values="0.55;1;0.55" dur="3.80s" begin="0.50s" repeatCount="indefinite"/></circle>
<circle cx="815.5" cy="87.8" r="4.0" fill="#36d6a0"><animate attributeName="r" values="4.0;5.8;4.0" dur="4.20s" begin="0.75s" repeatCount="indefinite"/><animate attributeName="fill-opacity" values="0.55;1;0.55" dur="4.20s" begin="0.75s" repeatCount="indefinite"/></circle>
<circle cx="927.2" cy="104.8" r="2.6" fill="#36d6a0"><animate attributeName="r" values="2.6;4.4;2.6" dur="2.20s" begin="1.00s" repeatCount="indefinite"/><animate attributeName="fill-opacity" values="0.55;1;0.55" dur="2.20s" begin="1.00s" repeatCount="indefinite"/></circle>
<circle cx="968.1" cy="158.2" r="3.3" fill="#36d6a0"><animate attributeName="r" values="3.3;5.1;3.3" dur="2.60s" begin="1.25s" repeatCount="indefinite"/><animate attributeName="fill-opacity" values="0.55;1;0.55" dur="2.60s" begin="1.25s" repeatCount="indefinite"/></circle>
<circle cx="875.0" cy="265.0" r="4.0" fill="#36d6a0"><animate attributeName="r" values="4.0;5.8;4.0" dur="3.00s" begin="1.50s" repeatCount="indefinite"/><animate attributeName="fill-opacity" values="0.55;1;0.55" dur="3.00s" begin="1.50s" repeatCount="indefinite"/></circle>
<circle cx="745.5" cy="235.4" r="2.6" fill="#f0c869"><animate attributeName="r" values="2.6;4.4;2.6" dur="3.40s" begin="1.75s" repeatCount="indefinite"/><animate attributeName="fill-opacity" values="0.55;1;0.55" dur="3.40s" begin="1.75s" repeatCount="indefinite"/></circle>
<circle cx="683.5" cy="184.2" r="3.3" fill="#36d6a0"><animate attributeName="r" values="3.3;5.1;3.3" dur="3.80s" begin="2.00s" repeatCount="indefinite"/><animate attributeName="fill-opacity" values="0.55;1;0.55" dur="3.80s" begin="2.00s" repeatCount="indefinite"/></circle>
<circle cx="692.0" cy="119.3" r="4.0" fill="#7af0ff"><animate attributeName="r" values="4.0;5.8;4.0" dur="4.20s" begin="2.25s" repeatCount="indefinite"/><animate attributeName="fill-opacity" values="0.55;1;0.55" dur="4.20s" begin="2.25s" repeatCount="indefinite"/></circle>
<circle cx="771.6" cy="70.6" r="2.6" fill="#36d6a0"><animate attributeName="r" values="2.6;4.4;2.6" dur="2.20s" begin="2.50s" repeatCount="indefinite"/><animate attributeName="fill-opacity" values="0.55;1;0.55" dur="2.20s" begin="2.50s" repeatCount="indefinite"/></circle>
<circle cx="891.4" cy="53.5" r="3.3" fill="#36d6a0"><animate attributeName="r" values="3.3;5.1;3.3" dur="2.60s" begin="2.75s" repeatCount="indefinite"/><animate attributeName="fill-opacity" values="0.55;1;0.55" dur="2.60s" begin="2.75s" repeatCount="indefinite"/></circle>
<circle cx="986.0" cy="93.1" r="4.0" fill="#36d6a0"><animate attributeName="r" values="4.0;5.8;4.0" dur="3.00s" begin="3.00s" repeatCount="indefinite"/><animate attributeName="fill-opacity" values="0.55;1;0.55" dur="3.00s" begin="3.00s" repeatCount="indefinite"/></circle>
<circle cx="1034.8" cy="161.0" r="2.6" fill="#36d6a0"><animate attributeName="r" values="2.6;4.4;2.6" dur="3.40s" begin="0.00s" repeatCount="indefinite"/><animate attributeName="fill-opacity" values="0.55;1;0.55" dur="3.40s" begin="0.00s" repeatCount="indefinite"/></circle>
<circle cx="975.4" cy="227.6" r="3.3" fill="#36d6a0"><animate attributeName="r" values="3.3;5.1;3.3" dur="3.80s" begin="0.25s" repeatCount="indefinite"/><animate attributeName="fill-opacity" values="0.55;1;0.55" dur="3.80s" begin="0.25s" repeatCount="indefinite"/></circle>
<circle cx="820.0" cy="150.4" r="4.0" fill="#36d6a0"><animate attributeName="r" values="4.0;5.8;4.0" dur="4.20s" begin="0.50s" repeatCount="indefinite"/><animate attributeName="fill-opacity" values="0.55;1;0.55" dur="4.20s" begin="0.50s" repeatCount="indefinite"/></circle>
</g>
<g filter="url(#softglow)" opacity="0.9"><g><path d="M0.0,308.7 L4.0,297.6 L8.0,293.5 L12.0,299.5 L16.0,312.5 L20.0,312.5 L24.0,312.2 L28.0,311.8 L32.0,311.5 L36.0,311.3 L40.0,311.3 L44.0,311.6 L48.0,312.1 L52.0,312.8 L56.0,313.6 L60.0,314.4 L64.0,314.9 L68.0,315.1 L72.0,315.0 L76.0,314.3 L80.0,313.2 L84.0,311.7 L88.0,309.9 L92.0,307.9 L96.0,305.9 L100.0,304.1 L104.0,302.7 L108.0,301.7 L112.0,301.2 L116.0,301.2 L120.0,301.7 L124.0,302.6 L128.0,303.7 L132.0,305.0 L136.0,306.1 L140.0,307.1 L144.0,307.8 L148.0,308.2 L152.0,308.2 L156.0,308.0 L160.0,307.6 L164.0,307.1 L168.0,306.7 L172.0,306.5 L176.0,306.6 L180.0,307.0 L184.0,307.7 L188.0,308.7 L192.0,309.9 L196.0,311.1 L200.0,312.2 L204.0,313.0 L208.0,313.4 L212.0,313.4 L216.0,312.7 L220.0,311.6 L224.0,310.0 L228.0,308.0 L232.0,305.9 L236.0,303.8 L240.0,301.8 L244.0,300.1 L248.0,298.8 L252.0,297.9 L256.0,297.5 L260.0,297.5 L264.0,297.8 L268.0,298.2 L272.0,298.7 L276.0,299.1 L280.0,299.3 L284.0,299.2 L288.0,298.9 L292.0,298.3 L296.0,297.7 L300.0,297.0 L304.0,296.5 L308.0,296.3 L312.0,296.4 L316.0,297.0 L320.0,298.1 L324.0,299.7 L328.0,301.6 L332.0,303.7 L336.0,306.0 L340.0,308.1 L344.0,310.0 L348.0,311.5 L352.0,312.5 L356.0,313.0 L360.0,313.0 L364.0,299.8 L368.0,293.7 L372.0,298.0 L376.0,309.8 L380.0,308.9 L384.0,308.2 L388.0,307.8 L392.0,307.7 L396.0,307.9 L400.0,308.3 L404.0,308.8 L408.0,309.3 L412.0,309.6 L416.0,309.6 L420.0,309.2 L424.0,308.5 L428.0,307.5 L432.0,306.2 L436.0,304.7 L440.0,303.3 L444.0,302.1 L448.0,301.2 L452.0,300.8 L456.0,300.9 L460.0,301.5 L464.0,302.6 L468.0,304.1 L472.0,305.9 L476.0,307.8 L480.0,309.6 L484.0,311.2 L488.0,312.5 L492.0,313.4 L496.0,313.8 L500.0,313.8 L504.0,313.4 L508.0,312.9 L512.0,312.3 L516.0,311.7 L520.0,311.3 L524.0,311.1 L528.0,311.2 L532.0,311.6 L536.0,312.1 L540.0,312.7 L544.0,313.3 L548.0,313.6 L552.0,313.6 L556.0,313.1 L560.0,312.2 L564.0,310.8 L568.0,308.9 L572.0,306.8 L576.0,304.5 L580.0,302.2 L584.0,300.0 L588.0,298.3 L592.0,296.9 L596.0,296.1 L600.0,295.8 L604.0,296.0 L608.0,296.6 L612.0,297.5 L616.0,298.5 L620.0,299.4 L624.0,300.2 L628.0,300.8 L632.0,301.0 L636.0,301.0 L640.0,300.8 L644.0,300.5 L648.0,300.1 L652.0,299.9 L656.0,300.0 L660.0,300.4 L664.0,301.2 L668.0,302.4 L672.0,303.8 L676.0,305.5 L680.0,307.3 L684.0,309.0 L688.0,310.4 L692.0,311.4 L696.0,311.9 L700.0,311.8 L704.0,311.3 L708.0,310.2 L712.0,308.9 L716.0,307.3 L720.0,305.7 L724.0,291.5 L728.0,285.0 L732.0,289.4 L736.0,301.6 L740.0,301.6 L744.0,301.9 L748.0,302.4 L752.0,303.0 L756.0,303.7 L760.0,304.1 L764.0,304.4 L768.0,304.4 L772.0,304.1 L776.0,303.5 L780.0,302.8 L784.0,302.2 L788.0,301.6 L792.0,301.3 L796.0,301.4 L800.0,302.0 L804.0,303.0 L808.0,304.5 L812.0,306.4 L816.0,308.6 L820.0,310.8 L824.0,312.9 L828.0,314.7 L832.0,316.2 L836.0,317.2 L840.0,317.6 L844.0,317.5 L848.0,317.0 L852.0,316.1 L856.0,315.1 L860.0,314.0 L864.0,313.0 L868.0,312.2 L872.0,311.6 L876.0,311.4 L880.0,311.4 L884.0,311.5 L888.0,311.7 L892.0,311.7 L896.0,311.6 L900.0,311.2 L904.0,310.3 L908.0,309.1 L912.0,307.5 L916.0,305.6 L920.0,303.6 L924.0,301.7 L928.0,299.9 L932.0,298.4 L936.0,297.4 L940.0,297.0 L944.0,297.1 L948.0,297.7 L952.0,298.8 L956.0,300.1 L960.0,301.6 L964.0,303.1 L968.0,304.4 L972.0,305.4 L976.0,306.1 L980.0,306.3 L984.0,306.3 L988.0,305.9 L992.0,305.5 L996.0,305.0 L1000.0,304.6 L1004.0,304.4 L1008.0,304.5 L1012.0,304.9 L1016.0,305.7 L1020.0,306.6 L1024.0,307.6 L1028.0,308.5 L1032.0,309.2 L1036.0,309.6 L1040.0,309.6 L1044.0,309.0 L1048.0,308.0 L1052.0,306.5 L1056.0,304.8 L1060.0,302.8 L1064.0,300.9 L1068.0,299.1 L1072.0,297.6 L1076.0,296.6 L1080.0,296.0 L1084.0,283.3 L1088.0,278.4 L1092.0,284.5 L1096.0,298.3 L1100.0,299.5 L1104.0,300.6 L1108.0,301.6 L1112.0,302.3 L1116.0,302.8 L1120.0,303.0 L1124.0,302.9 L1128.0,302.8 L1132.0,302.7 L1136.0,302.8 L1140.0,303.2 L1144.0,303.9 L1148.0,305.0 L1152.0,306.5 L1156.0,308.3 L1160.0,310.3 L1164.0,312.4 L1168.0,314.3 L1172.0,316.0 L1176.0,317.3 L1180.0,318.0 L1184.0,318.2 L1188.0,317.8 L1192.0,316.9 L1196.0,315.7 L1200.0,314.2" fill="none" stroke="#36d6a0" stroke-width="2" stroke-opacity="0.85"/><path d="M0.0,308.7 L4.0,297.6 L8.0,293.5 L12.0,299.5 L16.0,312.5 L20.0,312.5 L24.0,312.2 L28.0,311.8 L32.0,311.5 L36.0,311.3 L40.0,311.3 L44.0,311.6 L48.0,312.1 L52.0,312.8 L56.0,313.6 L60.0,314.4 L64.0,314.9 L68.0,315.1 L72.0,315.0 L76.0,314.3 L80.0,313.2 L84.0,311.7 L88.0,309.9 L92.0,307.9 L96.0,305.9 L100.0,304.1 L104.0,302.7 L108.0,301.7 L112.0,301.2 L116.0,301.2 L120.0,301.7 L124.0,302.6 L128.0,303.7 L132.0,305.0 L136.0,306.1 L140.0,307.1 L144.0,307.8 L148.0,308.2 L152.0,308.2 L156.0,308.0 L160.0,307.6 L164.0,307.1 L168.0,306.7 L172.0,306.5 L176.0,306.6 L180.0,307.0 L184.0,307.7 L188.0,308.7 L192.0,309.9 L196.0,311.1 L200.0,312.2 L204.0,313.0 L208.0,313.4 L212.0,313.4 L216.0,312.7 L220.0,311.6 L224.0,310.0 L228.0,308.0 L232.0,305.9 L236.0,303.8 L240.0,301.8 L244.0,300.1 L248.0,298.8 L252.0,297.9 L256.0,297.5 L260.0,297.5 L264.0,297.8 L268.0,298.2 L272.0,298.7 L276.0,299.1 L280.0,299.3 L284.0,299.2 L288.0,298.9 L292.0,298.3 L296.0,297.7 L300.0,297.0 L304.0,296.5 L308.0,296.3 L312.0,296.4 L316.0,297.0 L320.0,298.1 L324.0,299.7 L328.0,301.6 L332.0,303.7 L336.0,306.0 L340.0,308.1 L344.0,310.0 L348.0,311.5 L352.0,312.5 L356.0,313.0 L360.0,313.0 L364.0,299.8 L368.0,293.7 L372.0,298.0 L376.0,309.8 L380.0,308.9 L384.0,308.2 L388.0,307.8 L392.0,307.7 L396.0,307.9 L400.0,308.3 L404.0,308.8 L408.0,309.3 L412.0,309.6 L416.0,309.6 L420.0,309.2 L424.0,308.5 L428.0,307.5 L432.0,306.2 L436.0,304.7 L440.0,303.3 L444.0,302.1 L448.0,301.2 L452.0,300.8 L456.0,300.9 L460.0,301.5 L464.0,302.6 L468.0,304.1 L472.0,305.9 L476.0,307.8 L480.0,309.6 L484.0,311.2 L488.0,312.5 L492.0,313.4 L496.0,313.8 L500.0,313.8 L504.0,313.4 L508.0,312.9 L512.0,312.3 L516.0,311.7 L520.0,311.3 L524.0,311.1 L528.0,311.2 L532.0,311.6 L536.0,312.1 L540.0,312.7 L544.0,313.3 L548.0,313.6 L552.0,313.6 L556.0,313.1 L560.0,312.2 L564.0,310.8 L568.0,308.9 L572.0,306.8 L576.0,304.5 L580.0,302.2 L584.0,300.0 L588.0,298.3 L592.0,296.9 L596.0,296.1 L600.0,295.8 L604.0,296.0 L608.0,296.6 L612.0,297.5 L616.0,298.5 L620.0,299.4 L624.0,300.2 L628.0,300.8 L632.0,301.0 L636.0,301.0 L640.0,300.8 L644.0,300.5 L648.0,300.1 L652.0,299.9 L656.0,300.0 L660.0,300.4 L664.0,301.2 L668.0,302.4 L672.0,303.8 L676.0,305.5 L680.0,307.3 L684.0,309.0 L688.0,310.4 L692.0,311.4 L696.0,311.9 L700.0,311.8 L704.0,311.3 L708.0,310.2 L712.0,308.9 L716.0,307.3 L720.0,305.7 L724.0,291.5 L728.0,285.0 L732.0,289.4 L736.0,301.6 L740.0,301.6 L744.0,301.9 L748.0,302.4 L752.0,303.0 L756.0,303.7 L760.0,304.1 L764.0,304.4 L768.0,304.4 L772.0,304.1 L776.0,303.5 L780.0,302.8 L784.0,302.2 L788.0,301.6 L792.0,301.3 L796.0,301.4 L800.0,302.0 L804.0,303.0 L808.0,304.5 L812.0,306.4 L816.0,308.6 L820.0,310.8 L824.0,312.9 L828.0,314.7 L832.0,316.2 L836.0,317.2 L840.0,317.6 L844.0,317.5 L848.0,317.0 L852.0,316.1 L856.0,315.1 L860.0,314.0 L864.0,313.0 L868.0,312.2 L872.0,311.6 L876.0,311.4 L880.0,311.4 L884.0,311.5 L888.0,311.7 L892.0,311.7 L896.0,311.6 L900.0,311.2 L904.0,310.3 L908.0,309.1 L912.0,307.5 L916.0,305.6 L920.0,303.6 L924.0,301.7 L928.0,299.9 L932.0,298.4 L936.0,297.4 L940.0,297.0 L944.0,297.1 L948.0,297.7 L952.0,298.8 L956.0,300.1 L960.0,301.6 L964.0,303.1 L968.0,304.4 L972.0,305.4 L976.0,306.1 L980.0,306.3 L984.0,306.3 L988.0,305.9 L992.0,305.5 L996.0,305.0 L1000.0,304.6 L1004.0,304.4 L1008.0,304.5 L1012.0,304.9 L1016.0,305.7 L1020.0,306.6 L1024.0,307.6 L1028.0,308.5 L1032.0,309.2 L1036.0,309.6 L1040.0,309.6 L1044.0,309.0 L1048.0,308.0 L1052.0,306.5 L1056.0,304.8 L1060.0,302.8 L1064.0,300.9 L1068.0,299.1 L1072.0,297.6 L1076.0,296.6 L1080.0,296.0 L1084.0,283.3 L1088.0,278.4 L1092.0,284.5 L1096.0,298.3 L1100.0,299.5 L1104.0,300.6 L1108.0,301.6 L1112.0,302.3 L1116.0,302.8 L1120.0,303.0 L1124.0,302.9 L1128.0,302.8 L1132.0,302.7 L1136.0,302.8 L1140.0,303.2 L1144.0,303.9 L1148.0,305.0 L1152.0,306.5 L1156.0,308.3 L1160.0,310.3 L1164.0,312.4 L1168.0,314.3 L1172.0,316.0 L1176.0,317.3 L1180.0,318.0 L1184.0,318.2 L1188.0,317.8 L1192.0,316.9 L1196.0,315.7 L1200.0,314.2" fill="none" stroke="#36d6a0" stroke-width="2" stroke-opacity="0.85" transform="translate(1200,0)"/><animateTransform attributeName="transform" type="translate" from="0,0" to="-1200,0" dur="14s" repeatCount="indefinite"/></g></g>
<rect x="0" y="282" width="1200" height="58" fill="#02060c" opacity="0.35"/>
<rect x="270" y="96" width="660" height="120" rx="18" fill="#03070e" opacity="0.42"/>
<text x="600" y="166" text-anchor="middle" font-family="Segoe UI, Helvetica, Arial, sans-serif" font-size="62" font-weight="800" letter-spacing="2" fill="url(#title)">AXON<tspan fill="#f0c869">OS</tspan></text>
<text x="600" y="200" text-anchor="middle" font-family="Segoe UI, Helvetica, Arial, sans-serif" font-size="17" font-weight="600" letter-spacing="3" fill="#9fb6d4">REAL-TIME NEURAL OS FOR BRAIN–COMPUTER INTERFACES</text>
<text x="600" y="224" text-anchor="middle" font-family="Consolas, monospace" font-size="12.5" fill="#5f8f7f">Rust · #![no_std] · ARMv8-M · EDF real-time · open source</text>
</svg>