<svg xmlns="http://www.w3.org/2000/svg" viewBox="0 0 1200 200" width="1200" height="200" role="img" aria-label="AxonOS — real-time neural operating system for brain-computer interfaces">
<defs>
  <linearGradient id="bg" x1="0" y1="0" x2="0" y2="1">
    <stop offset="0" stop-color="#05090f"/><stop offset="1" stop-color="#02050a"/>
  </linearGradient>
  <linearGradient id="wm" x1="0" y1="0" x2="1" y2="0">
    <stop offset="0" stop-color="#eef3f9"/><stop offset="1" stop-color="#c7d3e0"/>
  </linearGradient>
  <linearGradient id="fade" x1="0" y1="0" x2="1" y2="0">
    <stop offset="0" stop-color="#2bbf90" stop-opacity="0"/>
    <stop offset="0.12" stop-color="#2bbf90" stop-opacity="0.9"/>
    <stop offset="0.88" stop-color="#2bbf90" stop-opacity="0.9"/>
    <stop offset="1" stop-color="#2bbf90" stop-opacity="0"/>
  </linearGradient>
</defs>
<rect width="1200" height="200" fill="url(#bg)"/>
<rect x="0" y="0" width="1200" height="1" fill="#132a3a"/>
<rect x="0" y="199" width="1200" height="1" fill="#0e1f2b"/>
<g opacity="0.85"><g><path d="M0.0,122.0 L4.0,110.9 L8.0,108.7 L12.0,117.8 L16.0,124.8 L20.0,124.5 L24.0,124.2 L28.0,124.0 L32.0,124.1 L36.0,124.5 L40.0,125.1 L44.0,126.0 L48.0,126.9 L52.0,127.7 L56.0,128.0 L60.0,128.0 L64.0,127.3 L68.0,126.1 L72.0,124.6 L76.0,122.7 L80.0,120.9 L84.0,119.3 L88.0,118.1 L92.0,117.5 L96.0,117.3 L100.0,117.6 L104.0,118.2 L108.0,119.0 L112.0,119.6 L116.0,120.0 L120.0,120.1 L124.0,119.9 L128.0,119.4 L132.0,118.8 L136.0,118.2 L140.0,117.9 L144.0,118.0 L148.0,118.6 L152.0,119.7 L156.0,121.1 L160.0,122.7 L164.0,124.3 L168.0,125.6 L172.0,126.5 L176.0,126.9 L180.0,126.6 L184.0,125.9 L188.0,124.8 L192.0,123.5 L196.0,122.2 L200.0,121.1 L204.0,120.3 L208.0,119.9 L212.0,119.8 L216.0,119.9 L220.0,120.0 L224.0,120.0 L228.0,119.6 L232.0,118.8 L236.0,117.6 L240.0,116.0 L244.0,114.3 L248.0,112.6 L252.0,111.1 L256.0,110.1 L260.0,109.7 L264.0,109.9 L268.0,110.6 L272.0,111.8 L276.0,113.2 L280.0,114.7 L284.0,115.9 L288.0,116.9 L292.0,117.5 L296.0,117.7 L300.0,117.6 L304.0,117.5 L308.0,117.5 L312.0,117.8 L316.0,118.4 L320.0,119.4 L324.0,120.8 L328.0,122.3 L332.0,123.9 L336.0,125.2 L340.0,126.2 L344.0,126.6 L348.0,126.4 L352.0,125.6 L356.0,124.4 L360.0,123.0 L364.0,121.5 L368.0,120.3 L372.0,119.4 L376.0,118.9 L380.0,118.8 L384.0,119.1 L388.0,119.6 L392.0,120.1 L396.0,120.3 L400.0,120.3 L404.0,119.9 L408.0,119.2 L412.0,118.3 L416.0,117.3 L420.0,116.5 L424.0,116.1 L428.0,116.2 L432.0,116.8 L436.0,118.0 L440.0,119.6 L444.0,121.4 L448.0,123.3 L452.0,124.9 L456.0,126.1 L460.0,126.8 L464.0,127.0 L468.0,126.8 L472.0,126.3 L476.0,125.7 L480.0,125.2 L484.0,124.9 L488.0,124.9 L492.0,125.3 L496.0,125.8 L500.0,126.4 L504.0,126.9 L508.0,127.0 L512.0,126.7 L516.0,125.8 L520.0,124.4 L524.0,122.6 L528.0,120.5 L532.0,118.4 L536.0,116.6 L540.0,115.1 L544.0,114.2 L548.0,113.8 L552.0,113.9 L556.0,114.3 L560.0,114.9 L564.0,115.4 L568.0,115.8 L572.0,115.8 L576.0,115.6 L580.0,115.1 L584.0,114.4 L588.0,113.9 L592.0,113.6 L596.0,113.7 L600.0,114.3 L604.0,102.9 L608.0,101.3 L612.0,111.7 L616.0,120.4 L620.0,121.9 L624.0,123.1 L628.0,123.7 L632.0,123.7 L636.0,123.3 L640.0,122.4 L644.0,121.4 L648.0,120.4 L652.0,119.5 L656.0,119.0 L660.0,118.9 L664.0,119.1 L668.0,119.5 L672.0,119.9 L676.0,120.2 L680.0,120.1 L684.0,119.7 L688.0,118.8 L692.0,117.6 L696.0,116.1 L700.0,114.7 L704.0,113.5 L708.0,112.7 L712.0,112.5 L716.0,112.8 L720.0,113.7 L724.0,115.1 L728.0,116.7 L732.0,118.3 L736.0,119.7 L740.0,120.9 L744.0,121.6 L748.0,121.9 L752.0,122.0 L756.0,121.9 L760.0,121.9 L764.0,122.2 L768.0,122.7 L772.0,123.7 L776.0,124.9 L780.0,126.4 L784.0,127.9 L788.0,129.1 L792.0,130.0 L796.0,130.3 L800.0,129.9 L804.0,129.0 L808.0,127.7 L812.0,126.0 L816.0,124.3 L820.0,122.8 L824.0,121.6 L828.0,120.8 L832.0,120.4 L836.0,120.4 L840.0,120.5 L844.0,120.7 L848.0,120.7 L852.0,120.4 L856.0,119.7 L860.0,118.7 L864.0,117.5 L868.0,116.3 L872.0,115.2 L876.0,114.4 L880.0,114.1 L884.0,114.5 L888.0,115.3 L892.0,116.7 L896.0,118.2 L900.0,119.9 L904.0,121.3 L908.0,122.4 L912.0,123.0 L916.0,123.1 L920.0,122.8 L924.0,122.2 L928.0,121.5 L932.0,120.9 L936.0,120.5 L940.0,120.5 L944.0,120.8 L948.0,121.4 L952.0,122.0 L956.0,122.6 L960.0,122.8 L964.0,122.6 L968.0,121.9 L972.0,120.7 L976.0,119.1 L980.0,117.2 L984.0,115.3 L988.0,113.6 L992.0,112.4 L996.0,111.6 L1000.0,111.4 L1004.0,111.7 L1008.0,112.4 L1012.0,113.3 L1016.0,114.2 L1020.0,114.8 L1024.0,115.2 L1028.0,115.3 L1032.0,115.1 L1036.0,114.8 L1040.0,114.5 L1044.0,114.5 L1048.0,114.9 L1052.0,115.7 L1056.0,117.1 L1060.0,118.8 L1064.0,120.8 L1068.0,122.8 L1072.0,124.6 L1076.0,126.1 L1080.0,126.9 L1084.0,127.2 L1088.0,127.0 L1092.0,126.4 L1096.0,125.5 L1100.0,124.6 L1104.0,123.8 L1108.0,123.4 L1112.0,123.2 L1116.0,123.4 L1120.0,123.8 L1124.0,124.3 L1128.0,124.5 L1132.0,124.5 L1136.0,124.0 L1140.0,123.1 L1144.0,121.8 L1148.0,120.2 L1152.0,118.6 L1156.0,117.2 L1160.0,116.2 L1164.0,115.7 L1168.0,115.8 L1172.0,116.4 L1176.0,117.5 L1180.0,118.8 L1184.0,120.2 L1188.0,121.4 L1192.0,122.2 L1196.0,122.7 L1200.0,122.8" fill="none" stroke="url(#fade)" stroke-width="1.6"/><path d="M0.0,122.0 L4.0,110.9 L8.0,108.7 L12.0,117.8 L16.0,124.8 L20.0,124.5 L24.0,124.2 L28.0,124.0 L32.0,124.1 L36.0,124.5 L40.0,125.1 L44.0,126.0 L48.0,126.9 L52.0,127.7 L56.0,128.0 L60.0,128.0 L64.0,127.3 L68.0,126.1 L72.0,124.6 L76.0,122.7 L80.0,120.9 L84.0,119.3 L88.0,118.1 L92.0,117.5 L96.0,117.3 L100.0,117.6 L104.0,118.2 L108.0,119.0 L112.0,119.6 L116.0,120.0 L120.0,120.1 L124.0,119.9 L128.0,119.4 L132.0,118.8 L136.0,118.2 L140.0,117.9 L144.0,118.0 L148.0,118.6 L152.0,119.7 L156.0,121.1 L160.0,122.7 L164.0,124.3 L168.0,125.6 L172.0,126.5 L176.0,126.9 L180.0,126.6 L184.0,125.9 L188.0,124.8 L192.0,123.5 L196.0,122.2 L200.0,121.1 L204.0,120.3 L208.0,119.9 L212.0,119.8 L216.0,119.9 L220.0,120.0 L224.0,120.0 L228.0,119.6 L232.0,118.8 L236.0,117.6 L240.0,116.0 L244.0,114.3 L248.0,112.6 L252.0,111.1 L256.0,110.1 L260.0,109.7 L264.0,109.9 L268.0,110.6 L272.0,111.8 L276.0,113.2 L280.0,114.7 L284.0,115.9 L288.0,116.9 L292.0,117.5 L296.0,117.7 L300.0,117.6 L304.0,117.5 L308.0,117.5 L312.0,117.8 L316.0,118.4 L320.0,119.4 L324.0,120.8 L328.0,122.3 L332.0,123.9 L336.0,125.2 L340.0,126.2 L344.0,126.6 L348.0,126.4 L352.0,125.6 L356.0,124.4 L360.0,123.0 L364.0,121.5 L368.0,120.3 L372.0,119.4 L376.0,118.9 L380.0,118.8 L384.0,119.1 L388.0,119.6 L392.0,120.1 L396.0,120.3 L400.0,120.3 L404.0,119.9 L408.0,119.2 L412.0,118.3 L416.0,117.3 L420.0,116.5 L424.0,116.1 L428.0,116.2 L432.0,116.8 L436.0,118.0 L440.0,119.6 L444.0,121.4 L448.0,123.3 L452.0,124.9 L456.0,126.1 L460.0,126.8 L464.0,127.0 L468.0,126.8 L472.0,126.3 L476.0,125.7 L480.0,125.2 L484.0,124.9 L488.0,124.9 L492.0,125.3 L496.0,125.8 L500.0,126.4 L504.0,126.9 L508.0,127.0 L512.0,126.7 L516.0,125.8 L520.0,124.4 L524.0,122.6 L528.0,120.5 L532.0,118.4 L536.0,116.6 L540.0,115.1 L544.0,114.2 L548.0,113.8 L552.0,113.9 L556.0,114.3 L560.0,114.9 L564.0,115.4 L568.0,115.8 L572.0,115.8 L576.0,115.6 L580.0,115.1 L584.0,114.4 L588.0,113.9 L592.0,113.6 L596.0,113.7 L600.0,114.3 L604.0,102.9 L608.0,101.3 L612.0,111.7 L616.0,120.4 L620.0,121.9 L624.0,123.1 L628.0,123.7 L632.0,123.7 L636.0,123.3 L640.0,122.4 L644.0,121.4 L648.0,120.4 L652.0,119.5 L656.0,119.0 L660.0,118.9 L664.0,119.1 L668.0,119.5 L672.0,119.9 L676.0,120.2 L680.0,120.1 L684.0,119.7 L688.0,118.8 L692.0,117.6 L696.0,116.1 L700.0,114.7 L704.0,113.5 L708.0,112.7 L712.0,112.5 L716.0,112.8 L720.0,113.7 L724.0,115.1 L728.0,116.7 L732.0,118.3 L736.0,119.7 L740.0,120.9 L744.0,121.6 L748.0,121.9 L752.0,122.0 L756.0,121.9 L760.0,121.9 L764.0,122.2 L768.0,122.7 L772.0,123.7 L776.0,124.9 L780.0,126.4 L784.0,127.9 L788.0,129.1 L792.0,130.0 L796.0,130.3 L800.0,129.9 L804.0,129.0 L808.0,127.7 L812.0,126.0 L816.0,124.3 L820.0,122.8 L824.0,121.6 L828.0,120.8 L832.0,120.4 L836.0,120.4 L840.0,120.5 L844.0,120.7 L848.0,120.7 L852.0,120.4 L856.0,119.7 L860.0,118.7 L864.0,117.5 L868.0,116.3 L872.0,115.2 L876.0,114.4 L880.0,114.1 L884.0,114.5 L888.0,115.3 L892.0,116.7 L896.0,118.2 L900.0,119.9 L904.0,121.3 L908.0,122.4 L912.0,123.0 L916.0,123.1 L920.0,122.8 L924.0,122.2 L928.0,121.5 L932.0,120.9 L936.0,120.5 L940.0,120.5 L944.0,120.8 L948.0,121.4 L952.0,122.0 L956.0,122.6 L960.0,122.8 L964.0,122.6 L968.0,121.9 L972.0,120.7 L976.0,119.1 L980.0,117.2 L984.0,115.3 L988.0,113.6 L992.0,112.4 L996.0,111.6 L1000.0,111.4 L1004.0,111.7 L1008.0,112.4 L1012.0,113.3 L1016.0,114.2 L1020.0,114.8 L1024.0,115.2 L1028.0,115.3 L1032.0,115.1 L1036.0,114.8 L1040.0,114.5 L1044.0,114.5 L1048.0,114.9 L1052.0,115.7 L1056.0,117.1 L1060.0,118.8 L1064.0,120.8 L1068.0,122.8 L1072.0,124.6 L1076.0,126.1 L1080.0,126.9 L1084.0,127.2 L1088.0,127.0 L1092.0,126.4 L1096.0,125.5 L1100.0,124.6 L1104.0,123.8 L1108.0,123.4 L1112.0,123.2 L1116.0,123.4 L1120.0,123.8 L1124.0,124.3 L1128.0,124.5 L1132.0,124.5 L1136.0,124.0 L1140.0,123.1 L1144.0,121.8 L1148.0,120.2 L1152.0,118.6 L1156.0,117.2 L1160.0,116.2 L1164.0,115.7 L1168.0,115.8 L1172.0,116.4 L1176.0,117.5 L1180.0,118.8 L1184.0,120.2 L1188.0,121.4 L1192.0,122.2 L1196.0,122.7 L1200.0,122.8" fill="none" stroke="url(#fade)" stroke-width="1.6" transform="translate(1200,0)"/><animateTransform attributeName="transform" type="translate" from="0,0" to="-1200,0" dur="20s" repeatCount="indefinite"/></g></g>
<text x="600" y="92" text-anchor="middle" font-family="SF Pro Display, Segoe UI, Helvetica, Arial, sans-serif" font-size="58" font-weight="800" letter-spacing="1.5" fill="url(#wm)">AxonOS</text>
<text x="600" y="158" text-anchor="middle" font-family="SFMono-Regular, Consolas, monospace" font-size="14.5" letter-spacing="2" fill="#6f8a96">real-time neural operating system · brain–computer interfaces</text>
<text x="600" y="180" text-anchor="middle" font-family="SFMono-Regular, Consolas, monospace" font-size="12" letter-spacing="2.5" fill="#3f5a64">#![no_std] · ARMv8-M · EDF real-time · Apache-2.0 / MIT</text>
</svg>